<svg xmlns="http://www.w3.org/2000/svg" viewBox="0 0 24 24" style="fill: #ffffff"><g id="Icons"><path d="M19,11a4.94,4.94,0,0,0-1.67.31L15.29,7H17.5a.5.5,0,0,1,.25.93.5.5,0,1,0,.5.87A1.5,1.5,0,0,0,17.5,6h-3a.5.5,0,0,0-.45.71l.85,1.79H9L7.79,6H9A.5.5,0,0,0,9,5H5A.5.5,0,0,0,5,6H6.68L8.1,9,6.85,11.37a5,5,0,1,0,3.1,5.13H12a.5.5,0,0,0,.25-.07l.06-.05a.49.49,0,0,0,.12-.11v0h0l3.2-6.14.78,1.64A5,5,0,1,0,19,11ZM14.83,9.5,12,14.88,9.46,9.5ZM5,20a4,4,0,1,1,1.39-7.74L4.56,15.77A.5.5,0,0,0,5,16.5H8.95A4,4,0,0,1,5,20Zm2.28-7.28A4,4,0,0,1,8.95,15.5H5.82ZM9.95,15.5a5,5,0,0,0-2.21-3.67l.9-1.72,2.57,5.39ZM19,20a4,4,0,0,1-2.15-7.37l1.7,3.58a.5.5,0,0,0,.9-.43l-1.69-3.57A4,4,0,0,1,19,12a4,4,0,0,1,0,8Z" /></g></svg>