<svg xmlns="http://www.w3.org/2000/svg" viewBox="0 0 24 24" style="fill: #ffffff"><g id="Icons"><path d="M23,17.45c-1.95-1.75-4.12-3.78-4.39-4.12S17.43,10.39,16.54,8c-.44-2.77-.9-3.09-1.14-3.26a1.78,1.78,0,0,0-1.05-.34h0a3.63,3.63,0,0,0-1.87.74A4.1,4.1,0,0,1,10.35,6a2.65,2.65,0,0,1-1-.19c-.55-.21-.57-.43-.61-1a1.9,1.9,0,0,0-.67-1.56A1.24,1.24,0,0,0,7.38,3C5.82,3,3.55,6.6,2.73,8l-1.31.93A1,1,0,0,0,1,9.84c.28,2.49,2,4.18,5.77,5.63a7.14,7.14,0,0,1,2.85,1.79,16.05,16.05,0,0,0,3.09,2.34A9.92,9.92,0,0,0,17.8,21c2.69,0,5.57-1.13,5.57-2.81A1,1,0,0,0,23,17.45ZM17.8,20a8.9,8.9,0,0,1-4.59-1.25c-3.45-2.07-2.87-3-6.09-4.21C3.53,13.15,2.22,11.7,2,9.73L3.48,8.68C4.79,6.42,6.65,4,7.38,4a.24.24,0,0,1,.15,0c.58.42-.29,2,1.5,2.69A3.65,3.65,0,0,0,10.35,7c1.86,0,3-1.57,4-1.57a.79.79,0,0,1,.47.15c.37.26.75,2.71.75,2.71l.27.71H14.5a.5.5,0,0,0,0,1h1.72l.39,1H15.24a.5.5,0,0,0,0,1H17l.41,1H16a.5.5,0,0,0,0,1h1.94c.66.76,4.46,4.19,4.46,4.19C22.38,18.95,20.36,20,17.8,20Z"/></g></svg>