<svg viewBox="0 0 24 24" xmlns="http://www.w3.org/2000/svg" style="fill: #ffffff"><path d="m5.16 9.38a2.82 2.82 0 1 0 2.84 2.81 2.81 2.81 0 0 0 -2.84-2.81zm0 4.63a1.82 1.82 0 1 1 1.84-1.82 1.82 1.82 0 0 1 -1.84 1.81z"/><path d="m20.32 10.09a3.49 3.49 0 0 0 -3 1.76l-5.26-2.11a.5.5 0 0 0 -.37.93l3.2 1.33h-4.83a4.94 4.94 0 1 0 -.06 1h6.87a3.39 3.39 0 0 0 -.06.64 3.52 3.52 0 1 0 3.51-3.51zm-15.16 6a3.92 3.92 0 1 1 3.92-3.92 3.91 3.91 0 0 1 -3.92 3.94zm15.16 0a2.51 2.51 0 0 1 -2.51-2.52 3.42 3.42 0 0 1 0-.45l2.29.92h.18a.5.5 0 0 0 .19-1l-2.29-.92a2.52 2.52 0 1 1 2.1 3.9z"/></svg>