<svg viewBox="0 0 24 24" xmlns="http://www.w3.org/2000/svg" style="fill: #ffffff"><path d="m8.92 15.82a5.29 5.29 0 0 1 1.3.31 18.24 18.24 0 0 0 3.06.69 20.19 20.19 0 0 0 2.21.11 23.28 23.28 0 0 0 3.74-.29 2.18 2.18 0 0 0 1.71-1.31 1.85 1.85 0 0 0 -.36-1.85 3.66 3.66 0 0 0 -1.89-1.15 9.41 9.41 0 0 1 -1.49-.61 24.26 24.26 0 0 1 -4.79-3.72 4.23 4.23 0 0 1 -.74-2.77v-2.9a1 1 0 0 0 -.93-1 3.57 3.57 0 0 0 -2.53.67 6.25 6.25 0 0 0 -1.52 1.86.44.44 0 0 1 -.38.24h-.77a1.21 1.21 0 0 0 -1.23 1.27v1a7 7 0 0 1 -.65 2.95c-.19.44-1.84 4.34-.77 5.81a4.94 4.94 0 0 0 3.21 1.42 4.91 4.91 0 0 0 2-.51 3 3 0 0 1 .82-.22zm-2.8-.23a4.09 4.09 0 0 1 -2.4-1c-.48-.66.07-3 .88-4.82a8.41 8.41 0 0 0 .73-3.35v-1.08a.24.24 0 0 1 .06-.16.23.23 0 0 1 .17-.07h.77a1.45 1.45 0 0 0 1.25-.75 5.46 5.46 0 0 1 1.26-1.54 2.49 2.49 0 0 1 1.83-.49v3.64h-2.12a.5.5 0 0 0 0 1h2.28a3.58 3.58 0 0 0 .85 1.72h-3.13a.5.5 0 0 0 -.5.5.5.5 0 0 0 .5.5h4.2a23.5 23.5 0 0 0 4 2.9 10.83 10.83 0 0 0 1.62.68 2.71 2.71 0 0 1 1.45.84.88.88 0 0 1 .18.89 1.16 1.16 0 0 1 -.95.67 21.69 21.69 0 0 1 -5.66.17 15.57 15.57 0 0 1 -2.89-.65 6 6 0 0 0 -1.5-.37h-.16a3.78 3.78 0 0 0 -1.09.33 4 4 0 0 1 -1.63.44zm-3.07 1.75a2.84 2.84 0 1 0 2.83 2.83 2.83 2.83 0 0 0 -2.83-2.83zm0 4.67a1.84 1.84 0 1 1 1.83-1.84 1.83 1.83 0 0 1 -1.83 1.83zm5.95-4.67a2.84 2.84 0 1 0 2.83 2.83 2.83 2.83 0 0 0 -2.83-2.83zm0 4.66a1.84 1.84 0 1 1 1.83-1.84 1.83 1.83 0 0 1 -1.83 1.84zm6-4.66a2.84 2.84 0 1 0 2.83 2.83 2.84 2.84 0 0 0 -2.83-2.83zm0 4.66a1.84 1.84 0 1 1 1.83-1.84 1.84 1.84 0 0 1 -1.83 1.84zm6-4.66a2.84 2.84 0 1 0 2.84 2.83 2.83 2.83 0 0 0 -2.84-2.83zm0 4.66a1.84 1.84 0 1 1 1.84-1.84 1.83 1.83 0 0 1 -1.84 1.84z"/></svg>