<svg viewBox="0 0 24 24" xmlns="http://www.w3.org/2000/svg" style="fill: #ffffff"><path d="m23.35 20.73a.52.52 0 0 0 -.37-.16h-7.98c2.64-9.94-.26-16.76-2.25-20a.55.55 0 0 0 -.35-.18.47.47 0 0 0 -.4.07l-4.52 3a.51.51 0 0 0 -.2.28l-3.44 12.26a.5.5 0 0 0 .23.57 23.68 23.68 0 0 0 10.22 2.6c-.1.45-.23.92-.35 1.38h-12.14a.92.92 0 0 0 -.92.92v1.1a.92.92 0 0 0 .92.92h17.84c3.69 0 3.84-2.39 3.84-2.41a.5.5 0 0 0 -.13-.35zm-18.44-4.83 3.3-11.72 3.92-2.6c1.74 3 3.93 8.6 2.37 16.62a24 24 0 0 1 -9.59-2.3zm14.73 6.61h-17.76v-.94h20.39c-.27.43-1 .94-2.63.94z"/></svg>