<svg viewBox="0 0 24 24" xmlns="http://www.w3.org/2000/svg" style="fill: #ffffff"><path d="m19.55 11.94a35.67 35.67 0 0 0 -4.84-3.61 15 15 0 0 0 -1.41-1.49 12.17 12.17 0 0 0 -1.69-1.34.88.88 0 0 0 -.9 0 .86.86 0 0 0 -.46.78v.81a.28.28 0 0 1 -.08.2 7.69 7.69 0 0 1 -1.64 1.39 4 4 0 0 1 -3.2.32 2.65 2.65 0 0 1 -1.12-1l-.42-.7a2.55 2.55 0 0 0 .58-2.11 1.84 1.84 0 0 0 -1.37-1.57 1 1 0 0 0 -1.13.38c-.37.58-.17 1.53.69 3.14a5.43 5.43 0 0 0 -1.39 1.44 9.53 9.53 0 0 0 -.94 4.61 4.37 4.37 0 0 0 2.55 2.81 5.41 5.41 0 0 0 2.61.33 27.28 27.28 0 0 1 3.81.05 25 25 0 0 1 5.67 1.38c1.45.55 3.13 1.3 4.36 1.84.65.29 1.16.51 1.42.61a2.5 2.5 0 0 0 1 .19 2.37 2.37 0 0 0 1.35-.4 2.2 2.2 0 0 0 .89-1.93c-.08-1.8-1.17-3.34-4.34-6.13zm-16.9-7.34h.06a.49.49 0 0 1 .22.07 1 1 0 0 1 .47.74 1.43 1.43 0 0 1 -.15.91c-.69-1.38-.59-1.7-.6-1.72zm.35 3.45a4 4 0 0 0 2 1.83 5 5 0 0 0 4-.33 8.43 8.43 0 0 0 1.9-1.63 1.31 1.31 0 0 0 .33-.87v-.59a12 12 0 0 1 1.36 1.11c.45.42.79.78 1 1l-1.42 1.58a.49.49 0 0 0 0 .7.5.5 0 0 0 .34.13.49.49 0 0 0 .37-.16l1.41-1.56c.17.11.45.28.81.53l-1.28 1.42a.49.49 0 0 0 0 .7.51.51 0 0 0 .71 0l1.47-1.52.74.55-1.18 1.29a.51.51 0 0 0 .37.84.48.48 0 0 0 .37-.17l1.23-1.34c.43.34.88.72 1.36 1.14a18.39 18.39 0 0 1 3.22 3.36 2.83 2.83 0 0 1 -1.31.55 5.84 5.84 0 0 1 -2.5-.79 29.39 29.39 0 0 0 -10.52-2.82.64.64 0 0 1 -.32-.13 33.7 33.7 0 0 0 -5.46-3.76 4.19 4.19 0 0 1 1-1.06zm19.38 11.12a1.49 1.49 0 0 1 -1.37.1l-1.38-.59c-1.23-.55-2.93-1.3-4.41-1.86a25.41 25.41 0 0 0 -5.89-1.44 19.43 19.43 0 0 0 -2.24-.1c-.67 0-1.31 0-1.76 0a4.34 4.34 0 0 1 -2.17-.25 3.42 3.42 0 0 1 -1.94-2.03 8.42 8.42 0 0 1 .43-3 33.33 33.33 0 0 1 5.16 3.59 1.55 1.55 0 0 0 .9.38 29.16 29.16 0 0 1 6.74 1.33 28.24 28.24 0 0 1 3.44 1.38 7.13 7.13 0 0 0 2.79.89h.18a3.89 3.89 0 0 0 1.74-.67 3.43 3.43 0 0 1 .24 1.14 1.22 1.22 0 0 1 -.46 1.13z"/></svg>