<svg xmlns="http://www.w3.org/2000/svg" viewBox="0 0 24 24" style="fill: #ffffff"><g id="Icons"><path d="M23.22,15.94a2.64,2.64,0,0,0-2-1.92c-1.46-.29-3.15-.76-3.72-.92L11.91,8.46,11,3.8A1,1,0,0,0,10,3,8.64,8.64,0,0,0,4.62,5H2a1,1,0,0,0-1,.91C.9,7,0,17,0,18c0,1.49,1.37,3,4,3H7a2.71,2.71,0,0,0,1.85-.82L9.07,20a13.17,13.17,0,0,1,3.09.42A19.7,19.7,0,0,0,17,21a7.4,7.4,0,0,0,5.71-2.29A2.84,2.84,0,0,0,23.22,15.94ZM5,6a7.65,7.65,0,0,1,5-2l.86,4.29A13,13,0,0,0,7.65,8H1.82L2,6ZM22,18a6.37,6.37,0,0,1-5,2c-4,0-5-1-8-1-.7,0-1,1-2,1H4c-2,0-3-1-3-2,0-.66.43-5.67.73-9H7.67a9.16,9.16,0,0,1,4.08.74l-1.54,1.32a.5.5,0,1,0,.65.76l1.66-1.42a.47.47,0,0,0,.06-.08l1.62,1.35L12.7,13a.5.5,0,0,0,.32.88.49.49,0,0,0,.32-.12L15,12.32l1.61,1.34-1.41,1.21a.5.5,0,0,0,.32.88.49.49,0,0,0,.32-.12l1.72-1.47s2.16.59,3.45.84A2,2,0,0,1,22,18Z"/></g></svg>