<svg viewBox="0 0 24 24" xmlns="http://www.w3.org/2000/svg" style="fill: #ffffff"><path d="m10.68 4.22a14.3 14.3 0 0 0 -1.34-2.53 3.68 3.68 0 0 0 -2.8-1.42h-.54a1.76 1.76 0 0 1 -.23 0 3.68 3.68 0 0 0 -2.77 1.42 13.2 13.2 0 0 0 -1.3 2.48 4.41 4.41 0 0 0 -.45 2.12 72.35 72.35 0 0 0 .53 8.56c0 .2.06.42.1.65a12.63 12.63 0 0 0 1.83 5.57 13.75 13.75 0 0 0 1.65 2.27 1.14 1.14 0 0 0 .81.35 1.13 1.13 0 0 0 .83-.35 13.75 13.75 0 0 0 1.65-2.27 12.5 12.5 0 0 0 1.83-5.57c0-.23.06-.45.1-.65a68.32 68.32 0 0 0 .53-8.57 4.48 4.48 0 0 0 -.43-2.06zm-1.1 10.48c0 .21-.06.43-.1.67a15.49 15.49 0 0 1 -.48 2.63l-1.38-.82a.49.49 0 0 0 -.68.17.5.5 0 0 0 .17.69l1.49.96a10.47 10.47 0 0 1 -.81 1.54 12.71 12.71 0 0 1 -1.52 2.11c-.06.07-.12.07-.19 0a12.71 12.71 0 0 1 -1.52-2.11 10.16 10.16 0 0 1 -.83-1.54l1.41-.84a.51.51 0 0 0 .17-.69.5.5 0 0 0 -.69-.17l-1.24.7a15.59 15.59 0 0 1 -.51-2.62c0-.24-.06-.46-.1-.67a70.05 70.05 0 0 1 -.52-8.4 3.59 3.59 0 0 1 .35-1.71l1.32.79a.5.5 0 0 0 .26.08.51.51 0 0 0 .43-.25.5.5 0 0 0 -.17-.68l-1.44-.9a11 11 0 0 1 .79-1.37 2.5 2.5 0 0 1 1.81-1v1.73a.5.5 0 1 0 1 0v-1.7a2.53 2.53 0 0 1 1.9 1 10.24 10.24 0 0 1 .8 1.3l-1.49.9a.49.49 0 0 0 -.17.68.51.51 0 0 0 .43.25.5.5 0 0 0 .26-.08l1.39-.84a.74.74 0 0 0 .06.14 3.63 3.63 0 0 1 .32 1.65 68 68 0 0 1 -.52 8.4z"/><path d="m8.36 8.46a2.58 2.58 0 0 1 -.48-.72c0-.1-.09-.21-.14-.32-.28-.64-.65-1.53-1.65-1.53s-1.34.89-1.61 1.53l-.14.33a2.41 2.41 0 0 1 -.48.7 1.16 1.16 0 0 0 -.32.77c0 .49-.12 4.87 1.35 6.39a1.7 1.7 0 0 0 1.22.54 1.75 1.75 0 0 0 1.26-.55c1.37-1.43 1.35-5.25 1.31-6.38a1.17 1.17 0 0 0 -.32-.76zm-1.71 6.44a.74.74 0 0 1 -.54.25.63.63 0 0 1 -.5-.24c-.8-.83-1.15-3.47-1.07-5.66a.1.1 0 0 1 0-.09 3.55 3.55 0 0 0 .66-1 3.73 3.73 0 0 0 .16-.35c.27-.62.42-.92.73-.92s.42.3.69.92l.22.35a3.76 3.76 0 0 0 .67 1 .1.1 0 0 1 0 .09c.09 2.2-.2 4.8-1.02 5.65zm16.15-8.62a4.36 4.36 0 0 0 -.42-2.06 14.3 14.3 0 0 0 -1.38-2.53 3.68 3.68 0 0 0 -2.76-1.42h-.5a1.76 1.76 0 0 1 -.23 0 3.68 3.68 0 0 0 -2.8 1.42 13.2 13.2 0 0 0 -1.31 2.48 4.41 4.41 0 0 0 -.4 2.12 72.67 72.67 0 0 0 .53 8.56c0 .2.06.42.1.65a12.63 12.63 0 0 0 1.83 5.57 13.75 13.75 0 0 0 1.65 2.27 1.14 1.14 0 0 0 .82.35 1.16 1.16 0 0 0 .82-.35 14.59 14.59 0 0 0 1.64-2.27 12.62 12.62 0 0 0 1.84-5.57c0-.23.06-.45.09-.65a68 68 0 0 0 .48-8.57zm-1.52 8.42c0 .21-.06.43-.1.67a15.49 15.49 0 0 1 -.53 2.63l-1.38-.82a.49.49 0 0 0 -.68.17.5.5 0 0 0 .17.69l1.54.96a11.4 11.4 0 0 1 -.8 1.54 13.15 13.15 0 0 1 -1.5 2.11c-.06.06-.11.08-.19 0a12.71 12.71 0 0 1 -1.52-2.11 10.16 10.16 0 0 1 -.86-1.54l1.41-.84a.5.5 0 0 0 .17-.69.49.49 0 0 0 -.68-.17l-1.24.7a14.74 14.74 0 0 1 -.52-2.62c0-.24-.06-.46-.1-.67a70.36 70.36 0 0 1 -.47-8.41 3.59 3.59 0 0 1 .35-1.7l1.31.79a.5.5 0 0 0 .26.08.51.51 0 0 0 .43-.25.5.5 0 0 0 -.17-.68l-1.42-.86a11 11 0 0 1 .79-1.37 2.5 2.5 0 0 1 1.81-1v1.69a.5.5 0 1 0 1 0v-1.7a2.53 2.53 0 0 1 1.9 1 10.24 10.24 0 0 1 .74 1.3l-1.49.9a.49.49 0 0 0 -.17.68.51.51 0 0 0 .43.25.5.5 0 0 0 .23-.08l1.39-.84a.74.74 0 0 0 .06.14 3.5 3.5 0 0 1 .35 1.65 66 66 0 0 1 -.52 8.4z"/><path d="m20.06 8.46a2.58 2.58 0 0 1 -.48-.72c0-.1-.09-.21-.14-.32-.28-.64-.65-1.53-1.65-1.53s-1.34.89-1.61 1.53l-.18.33a2.41 2.41 0 0 1 -.48.7 1.16 1.16 0 0 0 -.32.77c0 .49-.12 4.86 1.35 6.39a1.7 1.7 0 0 0 1.22.54 1.75 1.75 0 0 0 1.26-.55c1.37-1.43 1.35-5.25 1.31-6.38a1.12 1.12 0 0 0 -.28-.76zm-1.71 6.44a.74.74 0 0 1 -.54.25.63.63 0 0 1 -.5-.24c-.81-.83-1.15-3.47-1.07-5.66a.1.1 0 0 1 0-.09 3.55 3.55 0 0 0 .66-1 3.73 3.73 0 0 0 .16-.35c.27-.62.42-.92.73-.92s.42.3.69.92l.15.35a3.76 3.76 0 0 0 .67 1 .1.1 0 0 1 0 .09c.16 2.2-.13 4.8-.95 5.65z"/></svg>