<svg viewBox="0 0 24 24" xmlns="http://www.w3.org/2000/svg" style="fill: #ffffff"><path d="m16.83 7.12 2.62-.73a.84.84 0 0 0 .38-.26l2.11-2.69a.75.75 0 0 0 0-.95l-1.73-2.06a.63.63 0 0 0 -.57-.23.7.7 0 0 0 -.54.26 14.49 14.49 0 0 0 -1.92 2.88 13.53 13.53 0 0 0 -1.11 3.12l-4.39 5.75-4.38-5.74a14.13 14.13 0 0 0 -1.12-3.13 14.4 14.4 0 0 0 -1.91-2.88.74.74 0 0 0 -.55-.26.64.64 0 0 0 -.59.26l-1.65 2a.76.76 0 0 0 -.05 1l2.1 2.69a.82.82 0 0 0 .39.26l2.62.73 4.51 5.86-3.05 4-.47-.36a.51.51 0 0 0 -.7.1.5.5 0 0 0 .09.7l.48.36-3.9 5.13a.5.5 0 0 0 .1.7.48.48 0 0 0 .3.11.51.51 0 0 0 .4-.2l3.9-5.12.45.35a.47.47 0 0 0 .3.1.51.51 0 0 0 .4-.2.5.5 0 0 0 -.1-.7l-.44-.34 2.87-3.77 2.88 3.77-.45.34a.5.5 0 0 0 -.09.7.49.49 0 0 0 .39.2.5.5 0 0 0 .31-.1l.44-.34 3.91 5.11a.49.49 0 0 0 .39.2.51.51 0 0 0 .31-.11.49.49 0 0 0 .09-.7l-3.86-5.11.47-.36a.5.5 0 0 0 -.6-.8l-.48.36-3-4zm1.24-3.33a13.41 13.41 0 0 1 1.6-2.45l1.33 1.66-1.91 2.45-1.86.55a12.89 12.89 0 0 1 .84-2.21zm-13.8 1.66-1.92-2.45 1.35-1.66a13.31 13.31 0 0 1 1.59 2.45 14 14 0 0 1 .85 2.21z"/></svg>