<svg viewBox="0 0 24 24" xmlns="http://www.w3.org/2000/svg" style="fill: #ffffff"><path d="m22.52.39c-.28.01-6.78.13-13.36 6.71s-8.69 12.08-8.79 12.31a1 1 0 0 0 .11.93 1 1 0 0 0 .82.44h1.83v1.83a1 1 0 0 0 .44.82 1 1 0 0 0 .56.18 1.16 1.16 0 0 0 .37-.07c.23-.09 5.87-2.36 12.31-8.79 6.24-6.25 6.67-12.42 6.7-13.26a.31.31 0 0 0 0-.1 1 1 0 0 0 -.99-1zm-21.22 19.39s2.21-5.61 8.57-12c5-5 10-6.12 11.87-6.35l-4.17 4.2-14.15 14.15zm14.8-5.78c-6.36 6.36-12 8.57-12 8.57v-2.08l14.8-14.77 3.55-3.55c-.23 1.83-1.31 6.83-6.35 11.83z"/></svg>