<svg xmlns="http://www.w3.org/2000/svg" viewBox="0 0 24 24" style="fill: #ffffff"><g id="Icons"><path d="M6.51,8A4.14,4.14,0,0,0,10,5.86,4.14,4.14,0,0,0,13.51,8,4.15,4.15,0,0,0,17,5.86,4.15,4.15,0,0,0,20.51,8a4.07,4.07,0,0,0,2.29-.71.5.5,0,0,0-.57-.82A3.09,3.09,0,0,1,20.51,7a3.39,3.39,0,0,1-3-2.47.52.52,0,0,0-.94,0,3.39,3.39,0,0,1-3,2.47,3.39,3.39,0,0,1-3-2.47.52.52,0,0,0-.94,0A3.39,3.39,0,0,1,6.51,7a3.09,3.09,0,0,1-1.71-.53.5.5,0,1,0-.57.82A4.07,4.07,0,0,0,6.51,8Z"/><path d="M22.22,18.47a3.09,3.09,0,0,1-1.71.53,3.39,3.39,0,0,1-3-2.47.52.52,0,0,0-.94,0,3.39,3.39,0,0,1-3,2.47,3.39,3.39,0,0,1-3-2.47.52.52,0,0,0-.94,0,3.39,3.39,0,0,1-3,2.47,3.09,3.09,0,0,1-1.71-.53.5.5,0,1,0-.57.82A4.07,4.07,0,0,0,6.51,20,4.14,4.14,0,0,0,10,17.86,4.14,4.14,0,0,0,13.51,20,4.15,4.15,0,0,0,17,17.86,4.15,4.15,0,0,0,20.51,20a4.07,4.07,0,0,0,2.29-.71.5.5,0,0,0-.57-.82Z"/><path d="M7,11.86A4.14,4.14,0,0,0,10.51,14,4.15,4.15,0,0,0,14,11.86,4.15,4.15,0,0,0,17.51,14a4.07,4.07,0,0,0,2.29-.71.5.5,0,0,0-.57-.82,3.09,3.09,0,0,1-1.71.53,3.39,3.39,0,0,1-3-2.47.52.52,0,0,0-.94,0,3.35,3.35,0,0,1-3,2.47,3.39,3.39,0,0,1-3-2.47.52.52,0,0,0-.94,0,3.39,3.39,0,0,1-3,2.47,3.09,3.09,0,0,1-1.71-.53.5.5,0,1,0-.57.82A4.07,4.07,0,0,0,3.51,14,4.14,4.14,0,0,0,7,11.86Z"/></g></svg>