<svg viewBox="0 0 24 24" xmlns="http://www.w3.org/2000/svg" style="fill: #ffffff"><path d="m23.73 19.18a7.45 7.45 0 0 0 -2.92-2.49 4.55 4.55 0 0 0 -3.24-.53l-1.86-1.34a22.83 22.83 0 0 0 .17-2.69 18.77 18.77 0 0 0 -3.3-11.13 1 1 0 0 0 -1.58 0 17.91 17.91 0 0 0 -3.07 8.17l-1.4-1a4.4 4.4 0 0 0 -1.65-2.95 7.67 7.67 0 0 0 -3.39-1.81 1 1 0 0 0 -.8.29 2.16 2.16 0 0 0 -.55 1.59 3 3 0 0 0 1.29 2.27 6.44 6.44 0 0 0 3.57 1.51 2.73 2.73 0 0 0 .89-.15l1.93 1.4c0 .58-.08 1.18-.08 1.81a19.09 19.09 0 0 0 3.26 11.17 1 1 0 0 0 1.58 0 18 18 0 0 0 2.95-7.37l1.47 1.07c0 2.23 2.87 3.75 2.89 3.76a4.07 4.07 0 0 0 1.79.54 1.86 1.86 0 0 0 .79-.16 2.14 2.14 0 0 0 1.28-1.14 1.07 1.07 0 0 0 -.02-.82zm-21.64-12.37c-.45-.4-1-.93-.95-1.49a1.19 1.19 0 0 1 .28-.91 6.88 6.88 0 0 1 2.79 1.59 4 4 0 0 1 1.33 2c-1.24.39-2.93-.74-3.45-1.19zm9.71-5.18a17.94 17.94 0 0 1 3.08 10.5 18.46 18.46 0 0 1 -.11 2l-.88-.64a7.48 7.48 0 0 0 .07-1c0-2.12-.92-3.72-2.16-3.72-.82 0-1.5.71-1.86 1.81l-1.09-.74a17.13 17.13 0 0 1 2.95-8.21zm-1.15 10.75 2.13 1.55c-.24.83-.65 1.32-1 1.32s-1.16-1.06-1.16-2.71c.02-.06.03-.1.03-.16zm.15-1.12c.23-.9.67-1.44 1-1.44s1.2 1.06 1.2 2.72a2.72 2.72 0 0 1 0 .28zm1 11.42a18.16 18.16 0 0 1 -3.08-10.55c0-.38 0-.76 0-1.12l.95.68a5.77 5.77 0 0 0 -.06.85c0 2.12.93 3.71 2.16 3.71.8 0 1.46-.66 1.84-1.7l1 .72a17.2 17.2 0 0 1 -2.81 7.41zm10.27-2.48a2.2 2.2 0 0 1 -1.72-.35c-.61-.31-2.28-1.47-2.37-2.78a4 4 0 0 1 2.37.5 6 6 0 0 1 2.47 2.09 1.36 1.36 0 0 1 -.75.54z"/></svg>