<svg viewBox="0 0 24 24" xmlns="http://www.w3.org/2000/svg" style="fill: #ffffff"><path d="m22.74 18.72a.5.5 0 0 0 -.7-.1l-1.3 1c.3-16 .3-16 .26-16.11-.28-.81-1.92-1.85-3.92-2.49a12.23 12.23 0 0 0 -11 1.56 12.46 12.46 0 0 0 -5 8.31c-.43 2.67 0 5 .57 5.8.14.18.15.19 15.91 5.28l-1.31 1a.5.5 0 0 0 .3.9.47.47 0 0 0 .3-.1l5.76-4.3a.5.5 0 0 0 .13-.75zm-2.74-14.97c0 .42 0 2.09-.08 4.31a9.6 9.6 0 0 0 -5.82-1.06l-.71-5.61a12.34 12.34 0 0 1 3.29.56 7.34 7.34 0 0 1 3.32 1.8zm-13.31-.38a10.66 10.66 0 0 1 5.69-2l.74 5.83a9.32 9.32 0 0 0 -2.65 1.28 9.84 9.84 0 0 0 -2.4 2.31l-5.15-2.67a11 11 0 0 1 3.77-4.75zm-4.59 7.63a14 14 0 0 1 .47-1.95l5 2.55a9.74 9.74 0 0 0 -1.12 5.65l-4.04-1.25a9.35 9.35 0 0 1 -.31-5zm5.36 6.59a8.33 8.33 0 0 1 3.54-8.3c3.34-2.31 6.64-1.37 8.89-.11-.06 3.44-.14 7.82-.21 11.17l-1.15.86z"/></svg>