<svg viewBox="0 0 24 24" xmlns="http://www.w3.org/2000/svg" style="fill: #ffffff"><g><path d="m22.68 1.43a4 4 0 0 0 -5.63-.33 28 28 0 0 0 -2.34 2.66c-.64.78-1.37 1.67-2.25 2.67-1.29 1.43-2.46 2.63-2.76 2.94-.91.91-2.92 2.84-4.75 4.34l-1.21 1a24.24 24.24 0 0 0 -2.42 2.14 4.14 4.14 0 0 0 .24 5.71 4.2 4.2 0 0 0 3 1.27 4 4 0 0 0 2.72-1c.7-.67 1.37-1.46 2.22-2.46.29-.35.61-.73 1-1.14 1.26-1.49 2.7-3 4.26-4.6 1-1 3-3 4.56-4.22l1.1-1a30.93 30.93 0 0 0 2.58-2.35 3.94 3.94 0 0 0 -.32-5.63zm-.4 5a29.41 29.41 0 0 1 -2.54 2.29l-1.1.94c-1.56 1.27-3.56 3.23-4.62 4.29-1.58 1.58-3 3.14-4.31 4.65-.36.41-.68.79-1 1.15a29 29 0 0 1 -2.14 2.37 3.14 3.14 0 0 1 -4.32-.22 3.18 3.18 0 0 1 -.22-4.33 23.83 23.83 0 0 1 2.32-2l1.22-1c2.28-1.88 4.56-4.15 4.81-4.4s1.5-1.53 2.81-3c.89-1 1.62-1.91 2.27-2.7a29 29 0 0 1 2.26-2.56 2.78 2.78 0 0 1 1.9-.73 3.29 3.29 0 0 1 2.33 1 2.94 2.94 0 0 1 .33 4.2z"/><path d="m8.86 14a1.09 1.09 0 0 0 -.86-.37 1.27 1.27 0 0 0 -.81.37l-.84.84a1.25 1.25 0 0 0 -.37.87 1.1 1.1 0 0 0 .32.78l.91.91.15.16a1.64 1.64 0 0 0 1.17.44 1.53 1.53 0 0 0 .3 0 1.87 1.87 0 0 0 1.38-1 1.72 1.72 0 0 0 -.33-2zm.45 2.56a.89.89 0 0 1 -.65.49.66.66 0 0 1 -.56-.15l-.24-.25-.86-.94a.21.21 0 0 1 .08-.16l.84-.85c.06 0 .18-.1.24 0l1 1a.73.73 0 0 1 .15.81z"/><path d="m16 7.7-1.37-.44a1.19 1.19 0 0 0 -1.45.81l-.41 1.13a1.22 1.22 0 0 0 .08.94 1.06 1.06 0 0 0 .64.55l1.23.39.21.06a1.41 1.41 0 0 0 .45.07 1.68 1.68 0 0 0 1-.35 1.86 1.86 0 0 0 .75-1.55 1.72 1.72 0 0 0 -1.13-1.61zm.2 1.63a.85.85 0 0 1 -.35.73.62.62 0 0 1 -.57.13l-.31-.1-1.19-.41a.28.28 0 0 1 0-.18l.36-1.13c0-.11.13-.17.18-.15l1.38.43a.72.72 0 0 1 .5.68z"/></g></svg>