<svg viewBox="0 0 24 24" xmlns="http://www.w3.org/2000/svg" style="fill: #ffffff"><path d="m20.77 9.77c-2-.75-5.09-.63-7.87-.41-.8-1.65-2.41-3-8-2.11-1.71.3-3.8 1.17-4.28 2.38s-.62 3.29.08 4.42a1.77 1.77 0 0 0 .71.52 3.25 3.25 0 0 0 6 .95h3.12 1.5a3.27 3.27 0 0 0 5.88-.07h.49a11.87 11.87 0 0 0 2.66-.32c1.67-.46 2.73-1.4 2.77-2.46.05-.79-.45-1.94-3.06-2.9zm-8.95-.32h-.45a30.3 30.3 0 0 1 -3.76.2 1.91 1.91 0 0 1 -2-1.46s0 0 0-.06c4.39-.58 5.68.44 6.21 1.32zm-7.22 6.73a2.28 2.28 0 0 1 -2-1.18 23.13 23.13 0 0 0 3.63.5 2.28 2.28 0 0 1 -1.63.68zm10.4.17a2.29 2.29 0 1 1 2.29-2.29 2.3 2.3 0 0 1 -2.29 2.29zm5.85-2.17a11.24 11.24 0 0 1 -2.42.28h-.18a2.85 2.85 0 0 0 0-.41 3.29 3.29 0 0 0 -6.58 0 3.87 3.87 0 0 0 .05.49c-2.14 0-3.87 0-4.7 0-2-.07-5.16-.51-5.5-1a4.84 4.84 0 0 1 0-3.48c.25-.62 1.59-1.33 3.08-1.67v.05a3 3 0 0 0 2.93 2.3 32.15 32.15 0 0 0 3.91-.2c3-.27 6.78-.59 9 .21 1.55.58 2.46 1.3 2.43 1.94s-.87 1.16-2.05 1.49z"/></svg>