<svg viewBox="0 0 24 24" xmlns="http://www.w3.org/2000/svg" style="fill: #ffffff"><path d="m23.73 17.47a.52.52 0 0 0 -.36-.16h-6.43c-.5 0-.88 0-1.3-1.11h1.14c1.75-.09 3.37-.24 3.92-1.2a1.69 1.69 0 0 0 -.61-2.45 8.09 8.09 0 0 0 -1.72-.84 13.43 13.43 0 0 1 -2-.91 18.05 18.05 0 0 1 -3.17-2.9c-.41-.44-.77-.82-1-1.06-.74-.68-1-.94-1-1.61v-2.55a.89.89 0 0 0 -.3-.66.86.86 0 0 0 -.67-.21 3.73 3.73 0 0 0 -1.4.45 3.5 3.5 0 0 0 -.99.74.66.66 0 0 1 -.51.21h-2.23a1.07 1.07 0 0 0 -.76.32 1 1 0 0 0 -.34.77v2.1a8.54 8.54 0 0 1 -.5 3.17 12.68 12.68 0 0 0 -.83 3.7 3.11 3.11 0 0 0 1.66 2.62c-.51 1.41-1 1.42-1.33 1.42h-2a.9.9 0 0 0 -.9.9v1.33a.9.9 0 0 0 .9.9h19.18c3.54 0 3.68-2.58 3.69-2.61a.52.52 0 0 0 -.14-.36zm-20.06-4.2a11.89 11.89 0 0 1 .78-3.4 9.46 9.46 0 0 0 .61-3.47c0-.66 0-1.55 0-2.16h2.27a1.66 1.66 0 0 0 1.25-.54 2.58 2.58 0 0 1 .67-.54 2.89 2.89 0 0 1 .9-.32v2.39a3.19 3.19 0 0 0 0 .45l-2 1a.5.5 0 0 0 -.24.66.51.51 0 0 0 .45.29.54.54 0 0 0 .22 0l2-1a5.41 5.41 0 0 0 .91 1l-1.49 1.49a.5.5 0 0 0 0 .71.52.52 0 0 0 .35.14.48.48 0 0 0 .36-.16l1.48-1.54.3.32.83.86-1.42 1.47a.5.5 0 0 0 0 .71.49.49 0 0 0 .34.14.51.51 0 0 0 .36-.15l1.4-1.47a10.54 10.54 0 0 0 1.87 1.47 14.69 14.69 0 0 0 2.11 1 7.34 7.34 0 0 1 1.51.73c.69.48.5.81.32 1.14-.32.56-2.2.65-3.1.69a26.83 26.83 0 0 1 -3.23 0 13.28 13.28 0 0 1 -2.05-.36 10.55 10.55 0 0 0 -2.43-.4 6.17 6.17 0 0 0 -1.73.37 5 5 0 0 1 -1.16.29h-1c-.84 0-1.44-1.19-1.44-1.81zm9.18 2.8c-.48 1.23-.91 1.24-1.26 1.24h-3.23c-.37 0-.82 0-1.32-1.39l.56-.17a5.56 5.56 0 0 1 1.4-.33 10 10 0 0 1 2.2.34c.54.12 1.08.24 1.65.31zm7.33 3.37h-19.07v-1.13h1.89c1.11 0 1.79-.65 2.32-2.23h.68c.54 1.59 1.2 2.23 2.32 2.23h3.23c1.08 0 1.76-.63 2.29-2.14h.71c.58 1.75 1.3 2.11 2.35 2.11h5.77c-.2.52-.84 1.16-2.49 1.16z"/></svg>