<svg viewBox="0 0 24 24" xmlns="http://www.w3.org/2000/svg" style="fill: #ffffff"><path d="m10.47 14.76c-.51-.35-1.02-.58-1.49-.74 2.12-1.03 2.92-2.59 2.92-3.78 0-.87-.36-1.69-.98-2.27-.49-.45-1.36-.96-2.8-.83-2.6.23-4.04 2.26-4.1 2.34-.16.23-.1.54.12.69.22.16.54.1.7-.12.01-.02 1.24-1.73 3.37-1.92.84-.07 1.55.12 2.04.57.42.38.66.94.66 1.53 0 1.22-1.23 2.76-3.99 3.47-.25.06-.41.3-.37.56.04.25.27.42.52.43.02-.01 1.49-.05 2.86.89 1.19.81 1.76 2.26 1.42 3.61-.35 1.36-1.28 1.97-2.01 2.25-1.33.51-3.02.28-4.31-.58-2.92-1.96-2.86-5.53-2.86-5.56a.49.49 0 0 0 -.49-.51c-.29 0-.51.21-.51.48 0 .17-.09 4.15 3.3 6.42.99.67 2.19 1.01 3.36 1.01.65 0 1.29-.11 1.87-.33 1.34-.51 2.27-1.55 2.62-2.93.42-1.74-.31-3.63-1.85-4.68z"/><path d="m21.15 10.35c-.74-.75-1.64-1.13-2.61-1.12-2.16.03-3.12 1.46-3.89 2.61-.27.41-.53.79-.8 1.05-.7.67-1.5.46-1.54.44a.5.5 0 0 0 -.62.33.5.5 0 0 0 .33.62c.06.01 1.39.4 2.52-.68.35-.34.64-.76.94-1.21.71-1.05 1.44-2.15 3.08-2.17.73 0 1.34.27 1.89.82.91.92 1.45 2.51 1.41 4.13-.04 1.61-.79 4.68-3.32 4.75-2.51.06-3.13-2.5-3.18-2.8a.504.504 0 1 0 -.99.19c.26 1.35 1.41 3.61 4.06 3.61h.14c2.84-.08 4.22-3.02 4.29-5.72.04-1.88-.61-3.74-1.71-4.85zm-7.08-2.59c.48.11.95.16 1.39.16 2.78 0 4.7-1.85 4.79-1.94.2-.19.2-.51.01-.71s-.51-.2-.71-.01c-.02.02-2.3 2.19-5.26 1.53-2.34-.53-3.03-2.48-3.06-2.57a.51.51 0 0 0 -.63-.32.51.51 0 0 0 -.32.63c.04.1.88 2.57 3.79 3.23z"/><path d="m15.28 5.81c1.25 0 2.26-1.01 2.26-2.26s-1.01-2.26-2.26-2.26-2.26 1.01-2.26 2.26 1.01 2.26 2.26 2.26zm0-3.52c.7 0 1.26.56 1.26 1.26s-.56 1.26-1.26 1.26-1.26-.56-1.26-1.26.57-1.26 1.26-1.26z"/></svg>