<svg viewBox="0 0 24 24" xmlns="http://www.w3.org/2000/svg" style="fill: #ffffff"><path d="m20.94 9.61 2.52-4.82h-1.92v-3.46l-2.4 4.77h1.8z"/><path d="m18.93 12.75c-.58 0-1.13.12-1.65.3l-2.02-4.25h2.18a.49.49 0 0 1 .24.92c-.24.14-.32.44-.18.68s.45.32.68.18c.46-.27.74-.76.74-1.29 0-.82-.67-1.49-1.49-1.49h-2.97c-.17 0-.33.09-.42.23-.09.15-.1.33-.03.48l.83 1.76h-5.82l-1.18-2.46h1.19c.27 0 .49-.22.49-.49s-.22-.5-.49-.5h-3.96c-.27 0-.49.22-.49.49s.22.5.49.5h1.66l1.4 2.95-1.23 2.36c-.57-.23-1.19-.36-1.84-.36-2.73 0-4.96 2.23-4.96 4.96s2.22 4.96 4.96 4.96c2.56 0 4.65-1.96 4.91-4.46h2.03c.09 0 .17-.03.25-.07.02-.01.04-.04.06-.05.04-.03.09-.06.12-.11 0-.01 0-.01.01-.02 0-.01.01-.01.01-.01l3.17-6.07.76 1.61c-1.43.87-2.4 2.43-2.4 4.23 0 2.73 2.22 4.96 4.96 4.96s4.96-2.23 4.96-4.96c-.01-2.76-2.24-4.98-4.97-4.98zm-4.14-1.47-2.77 5.31-2.53-5.31zm-9.72 10.39c-2.19 0-3.96-1.77-3.96-3.96s1.77-3.96 3.96-3.96c.48 0 .94.1 1.37.26l-1.81 3.47c-.08.16-.08.34.02.49s.25.24.43.24h3.91c-.26 1.95-1.9 3.46-3.92 3.46zm2.26-7.21c.9.62 1.51 1.61 1.65 2.75h-3.09zm2.65 2.75a4.97 4.97 0 0 0 -2.19-3.64l.88-1.69 2.54 5.32h-1.23zm8.95 4.46a3.956 3.956 0 0 1 -2.13-7.29l1.68 3.54c.09.18.27.29.45.29a.504.504 0 0 0 .45-.72l-1.67-3.53c.39-.13.79-.21 1.22-.21 2.19 0 3.96 1.77 3.96 3.96 0 2.18-1.77 3.96-3.96 3.96z"/></svg>