<svg viewBox="0 0 24 24" xmlns="http://www.w3.org/2000/svg" style="fill: #ffffff"><path d="m15.37 13.69c-.36-.47-.74-1-1.1-1.46.85-1.1 1.72-2.21 2.59-3.3s1.65-2 2.21-2.73 1.15-1.4 1.85-2.29a3 3 0 0 0 .35-3.35l-.11-.18h-.2a3 3 0 0 0 -3.14 1.23c-1.06 1.39-1.71 2.32-2.94 4.05l-.81 1.13c-.62.87-1.26 1.75-1.9 2.62-.64-.87-1.29-1.74-1.91-2.62l-.8-1.13c-1.24-1.73-1.89-2.66-2.95-4.1a3 3 0 0 0 -3.14-1.23h-.2l-.11.23a3 3 0 0 0 .35 3.35c.7.89 1.21 1.51 1.84 2.28s1.23 1.5 2.22 2.74c.86 1.07 1.74 2.18 2.6 3.3l-1.07 1.46c-1.83 2.38-4.2 5.41-5.1 6.49-.53.63-1.07 1.27-.82 2.08a2.06 2.06 0 0 0 .77 1 2 2 0 0 0 1.23.47c.83 0 1.29-.69 1.74-1.35.86-1.28 3.14-4.49 4.79-6.72l.53-.7.52.7c1.64 2.22 3.92 5.44 4.79 6.72.45.66.91 1.35 1.74 1.35a2 2 0 0 0 1.2-.44 2.22 2.22 0 0 0 .81-1.07c.24-.81-.3-1.45-.82-2.08-.86-1.05-3.23-4.08-5.01-6.45zm3.26-11.54a2 2 0 0 1 1.86-.89 2 2 0 0 1 -.35 2c-.7.89-1.21 1.51-1.84 2.28s-1.18 1.46-2.09 2.6l-1.21-.92.69-1c1.23-1.71 1.88-2.62 2.94-4.07zm-4.22 5.85 1.18.89c-.65.82-1.3 1.65-1.94 2.48l-.86-1.14zm-8.41-2.44c-.6-.77-1.11-1.38-1.8-2.27a2.06 2.06 0 0 1 -.36-2 2.07 2.07 0 0 1 1.87.89c1 1.45 1.7 2.36 2.93 4.09l.7 1-1.22.91c-.92-1.18-1.56-1.96-2.12-2.62zm0 16.3c-.44.63-.71.94-.93.91a1.14 1.14 0 0 1 -.65-.26 1.29 1.29 0 0 1 -.42-.51c-.07-.25.14-.55.63-1.14.64-.76 2-2.45 3.34-4.22l1.12.85c-1.23 1.72-2.48 3.51-3.09 4.37zm4.81-6.75c-.36.48-.74 1-1.13 1.54l-1.1-.83 1.18-1.52.94-1.24.84 1.1zm-2.07-6.19 1.18-.92c1.54 2.14 3.13 4.27 4.65 6.28l1.17 1.54-1.1.83-1.14-1.54c-1.5-2.05-3.16-4.18-4.76-6.19zm11.56 13.08a1.19 1.19 0 0 1 -.42.54h-.06a1 1 0 0 1 -.59.22c-.3 0-.49-.28-.92-.91-.59-.88-1.83-2.64-3.09-4.38l1.13-.85c1.35 1.75 2.68 3.44 3.32 4.2.5.6.7.9.63 1.18z"/></svg>