<svg viewBox="0 0 24 24" xmlns="http://www.w3.org/2000/svg" style="fill: #ffffff"><path d="m19.17 9.43c-.96 0-1.86.29-2.61.79l-.46-.57c.41-.49.66-1.11.66-1.79 0-1.55-1.26-2.81-2.81-2.81s-2.81 1.26-2.81 2.81c0 .47.13.9.33 1.29l-.84.69c-.21.17-.24.49-.07.7.1.12.24.18.39.18.11 0 .22-.04.32-.11l.81-.67c.5.45 1.15.73 1.87.73.5 0 .97-.14 1.38-.38l.45.55a4.75 4.75 0 0 0 -1.33 2.84h-4.91c-.25-2.38-2.26-4.25-4.71-4.25-2.63 0-4.76 2.14-4.76 4.76s2.14 4.76 4.76 4.76c2.46 0 4.46-1.87 4.71-4.26h4.92c.25 2.39 2.26 4.26 4.71 4.26 2.63 0 4.76-2.14 4.76-4.76s-2.13-4.76-4.76-4.76zm-6.31-.13.86-.71c.21-.17.24-.49.07-.7a.495.495 0 0 0 -.7-.07l-.83.68c-.08-.2-.12-.41-.12-.64a1.81 1.81 0 1 1 1.81 1.81c-.41 0-.79-.14-1.09-.37zm3.57 2.33 1.69 2.06h-2.66c.11-.79.45-1.5.97-2.06zm-11.6 6.33c-2.08 0-3.76-1.69-3.76-3.76s1.69-3.76 3.76-3.76c1.91 0 3.47 1.42 3.71 3.26h-3.71c-.28 0-.5.22-.5.5s.22.5.5.5h3.71c-.25 1.83-1.81 3.26-3.71 3.26zm14.34 0c-1.91 0-3.47-1.42-3.71-3.26h3.71c.06 0 .12-.01.18-.04l.06-.03a.3.3 0 0 0 .08-.04l.02-.02c.03-.02.04-.05.06-.08s.04-.05.05-.08l.03-.09c.01-.03.02-.07.02-.1v-.02c0-.02-.01-.04-.01-.07s-.01-.07-.02-.1-.03-.06-.05-.09l-.03-.06-2.36-2.88a3.69 3.69 0 0 1 1.97-.57c2.08 0 3.76 1.69 3.76 3.76s-1.68 3.77-3.76 3.77z"/></svg>