<svg viewBox="0 0 24 24" xmlns="http://www.w3.org/2000/svg" style="fill: #ffffff"><path d="m23.41 11.71h-1.31v-1.71a1 1 0 0 0 -1-1h-1.39v-.86a1 1 0 0 0 -1-1h-1.38a1 1 0 0 0 -1 1v3.57h-8.66v-3.57a1 1 0 0 0 -1-1h-1.39a1 1 0 0 0 -1 1v.91h-1.38a1 1 0 0 0 -1 1v1.67h-1.31a.5.5 0 0 0 -.5.5.51.51 0 0 0 .5.5h1.31v1.8a1 1 0 0 0 1 1h1.39v1a1 1 0 0 0 1 1h1.38a1 1 0 0 0 1-1v-3.81h8.66v3.78a1 1 0 0 0 1 1h1.39a1 1 0 0 0 1-1v-1h1.38a1 1 0 0 0 1-1v-1.8h1.31a.51.51 0 0 0 .5-.5.5.5 0 0 0 -.5-.48zm-20.51 2.8v-4.46h1.39v4.47zm2.39 2v-2-4.51-1.85h1.38v8.35zm12 0v-8.36h1.38v1.85 4.47 2zm2.38-2v-4.46h1.43v4.47z"/></svg>