<svg viewBox="0 0 24 24" xmlns="http://www.w3.org/2000/svg" style="fill: #ffffff"><path d="m17.1 18.29a1.49 1.49 0 0 0 -.54-.34v-16.63h.57a.5.5 0 0 0 .5-.5.51.51 0 0 0 -.5-.5h-2.13a.5.5 0 0 0 -.5.5.5.5 0 0 0 .5.5h.57v16.68a1.45 1.45 0 0 0 -.55.34c-1.17 1.2-1.15 4.62-1.14 5a.49.49 0 0 0 .5.49h3.36a.5.5 0 0 0 .5-.49c0-.43.03-3.85-1.14-5.05zm-2.23 4.49c0-1.32.27-3.19.86-3.79a.41.41 0 0 1 .33-.15.43.43 0 0 1 .33.15c.58.6.81 2.47.84 3.79z"/><path d="m9.46.73h-.17a3.16 3.16 0 0 0 -2.63 1.74c-1 1.65-1.56 4.41-1.56 8.21 0 7 1.75 10.77 2.29 11.78a1.55 1.55 0 0 0 1.37.81h1.24a1.55 1.55 0 0 0 1.37-.81c.54-1 2.29-4.82 2.29-11.78 0-8.98-2.94-9.95-4.2-9.95zm1 21.26a.54.54 0 0 1 -.49.28h-1.21a.54.54 0 0 1 -.49-.27c-.53-1-2.17-4.6-2.17-11.31 0-8.54 2.68-8.95 3.19-8.95h.17c.52 0 3.2.41 3.2 9 0 6.65-1.66 10.26-2.17 11.26z"/><path d="m10.16 5.88a1.46 1.46 0 0 0 -.78-.23 1.44 1.44 0 0 0 -1 .38q-1.38 1.14-1.38 5.27v1.54s.11 1.46.21 2.21c.58 4.35 1.46 4.95 2.17 4.95s1.23-1 1.39-1.39a13.1 13.1 0 0 0 .73-3.3 32.1 32.1 0 0 0 .24-4c0-.29 0-.58 0-.86a9.75 9.75 0 0 0 -.55-3.17 2.68 2.68 0 0 0 -1.03-1.4zm.58 5.37a32.08 32.08 0 0 1 -.23 3.9 12.09 12.09 0 0 1 -.66 3c-.3.74-.46.76-.46.76s-.69-.3-1.17-4c-.09-.73-.17-1.51-.2-2.13s0-1.11 0-1.54c0-3 .61-4.06 1-4.41a.58.58 0 0 1 .32-.19h.06c.06 0 .14 0 .23.08a1.65 1.65 0 0 1 .61.87 8.46 8.46 0 0 1 .48 2.83c.01.28.02.58.02.83z"/></svg>