<svg xmlns="http://www.w3.org/2000/svg" viewBox="0 0 24 24" style="fill: #ffffff"><g id="Icons"><path d="M24,13.14a2.24,2.24,0,0,0-1.78-1.64L18.33,11,13.69,8.26C12,6,11.31,6,11,6,9.28,6,8.53,7.51,8.08,8.41c-.09.19-.22.45-.32.59H5.94a3.31,3.31,0,0,1-.49-.63A2.42,2.42,0,0,0,3.55,7C1.17,7,1,13.57,1,14.55A7.71,7.71,0,0,0,.74,16c0,1.77,2.72,2,4.34,2a21.67,21.67,0,0,0,4-.3,9.47,9.47,0,0,1,1.7-.16,25,25,0,0,1,3.4.32,13.62,13.62,0,0,0,2,.14,11.53,11.53,0,0,0,6.62-1.89A2.93,2.93,0,0,0,24,13.14Zm-1.87,2.18a10.62,10.62,0,0,1-6,1.68,12.57,12.57,0,0,1-1.81-.13,25.35,25.35,0,0,0-3.55-.33c-1.83,0-2.18.47-5.68.47-1.28,0-3.34-.23-3.34-1,0-.12.26-1.3.26-1.3C2,11.54,2.73,8,3.55,8s1.28,2,2.35,2H8c1,0,1.12-3,3-3,.4,0,1.24,1,1.69,1.6l-1,1a.5.5,0,1,0,.71.71l1.08-1.09,1.12.67-.91.91a.5.5,0,1,0,.71.71l1.08-1.08,1.11.67-.9.9a.5.5,0,1,0,.71.71l1.08-1.08L18,12l4.07.48C23,12.64,23.53,14.24,22.13,15.31Z"/></g></svg>